<svg xmlns="http://www.w3.org/2000/svg" xmlns:xlink="http://www.w3.org/1999/xlink" width="500" zoomAndPan="magnify" viewBox="0 0 375 374.999991" height="500" preserveAspectRatio="xMidYMid meet" version="1.0"><defs><clipPath id="64122fde64"><path d="M 43.09375 247 L 63 247 L 63 275 L 43.09375 275 Z M 43.09375 247 " clip-rule="nonzero"/></clipPath><clipPath id="2cdc78ff37"><path d="M 278 131 L 337.84375 131 L 337.84375 210 L 278 210 Z M 278 131 " clip-rule="nonzero"/></clipPath><clipPath id="34e88a52c3"><path d="M 294 131 L 337.84375 131 L 337.84375 174 L 294 174 Z M 294 131 " clip-rule="nonzero"/></clipPath><clipPath id="85badca43b"><path d="M 155 31.363281 L 177 31.363281 L 177 57 L 155 57 Z M 155 31.363281 " clip-rule="nonzero"/></clipPath><clipPath id="62eb438124"><path d="M 166 31.363281 L 177 31.363281 L 177 57 L 166 57 Z M 166 31.363281 " clip-rule="nonzero"/></clipPath></defs><rect x="-37.5" width="450" fill="#ffffff" y="-37.499999" height="449.999989" fill-opacity="1"/><rect x="-37.5" width="450" fill="#ffffff" y="-37.499999" height="449.999989" fill-opacity="1"/><path fill="#2f2f3f" d="M 296.113281 89.382812 C 284.078125 88.9375 269.542969 97.867188 263.648438 109.324219 C 257.75 120.777344 262.726562 130.421875 274.769531 130.867188 C 286.804688 131.308594 301.347656 122.378906 307.242188 110.925781 C 313.136719 99.46875 308.15625 89.824219 296.113281 89.382812 Z M 302.347656 110.253906 C 297.78125 119.125 286.515625 126.039062 277.191406 125.699219 C 267.867188 125.355469 264.011719 117.886719 268.578125 109.015625 C 273.144531 100.136719 284.40625 93.222656 293.730469 93.5625 C 303.054688 93.90625 306.914062 101.375 302.347656 110.253906 Z M 302.347656 110.253906 " fill-opacity="1" fill-rule="nonzero"/><path fill="#e6ebfd" d="M 257.148438 272.320312 C 260.945312 271.980469 265.160156 272.285156 267.925781 274.902344 C 268.207031 275.167969 268.457031 275.449219 268.691406 275.742188 L 273.664062 274.859375 L 180.628906 236.949219 L 150.664062 242.226562 L 239.414062 277.882812 C 244.839844 274.800781 250.929688 272.875 257.148438 272.320312 Z M 257.148438 272.320312 " fill-opacity="1" fill-rule="nonzero"/><path fill="#e6ebfd" d="M 177.84375 285.429688 C 179.664062 284.5 181.628906 283.953125 183.648438 283.695312 L 137.554688 265.558594 L 107.378906 270.761719 L 170.53125 295.789062 C 170.542969 295.753906 170.558594 295.71875 170.570312 295.683594 C 172.011719 291.3125 173.445312 287.675781 177.84375 285.429688 Z M 177.84375 285.429688 " fill-opacity="1" fill-rule="nonzero"/><path fill="#c0d0f0" d="M 193.105469 284.242188 C 198.195312 285.320312 203.054688 287.300781 208.101562 288.566406 C 213.148438 289.832031 218.605469 290.34375 223.472656 288.503906 C 227.976562 286.800781 231.503906 283.277344 235.402344 280.453125 C 236.691406 279.523438 238.03125 278.667969 239.414062 277.882812 L 150.664062 242.226562 L 137.5625 265.558594 L 137.554688 265.558594 L 183.648438 283.695312 C 186.765625 283.296875 190.015625 283.585938 193.105469 284.242188 Z M 193.105469 284.242188 " fill-opacity="1" fill-rule="nonzero"/><path fill="#c0d0f0" d="M 257.148438 272.320312 C 250.929688 272.875 244.839844 274.800781 239.414062 277.882812 L 244.71875 280.011719 L 268.691406 275.742188 C 268.457031 275.449219 268.207031 275.167969 267.925781 274.902344 C 265.160156 272.285156 260.945312 271.980469 257.148438 272.320312 Z M 257.148438 272.320312 " fill-opacity="1" fill-rule="nonzero"/><path fill="#ffc8bb" d="M 231.152344 302.386719 L 183.648438 283.695312 C 181.628906 283.953125 179.664062 284.5 177.84375 285.429688 C 173.445312 287.675781 172.011719 291.3125 170.570312 295.683594 C 170.558594 295.71875 170.542969 295.753906 170.53125 295.789062 L 201.253906 307.964844 Z M 231.152344 302.386719 " fill-opacity="1" fill-rule="nonzero"/><path fill="#0a0a19" d="M 170.59375 295.613281 C 170.441406 295.5625 170.363281 295.402344 170.410156 295.25 C 171.804688 291.066406 173.316406 287.421875 177.710938 285.175781 L 177.882812 285.089844 C 178.023438 285.019531 178.195312 285.078125 178.265625 285.21875 C 178.335938 285.363281 178.277344 285.535156 178.136719 285.605469 L 177.972656 285.6875 C 173.761719 287.835938 172.355469 291.226562 170.957031 295.433594 C 170.90625 295.582031 170.746094 295.664062 170.59375 295.613281 Z M 170.59375 295.613281 " fill-opacity="1" fill-rule="nonzero"/><path fill="#0a0a19" d="M 181.65625 283.757812 C 182.152344 283.644531 182.671875 283.546875 183.195312 283.46875 C 183.351562 283.449219 183.496094 283.554688 183.519531 283.710938 C 183.542969 283.867188 183.433594 284.011719 183.277344 284.035156 C 182.769531 284.113281 182.265625 284.207031 181.785156 284.316406 C 181.410156 284.40625 181.289062 283.84375 181.65625 283.757812 Z M 181.65625 283.757812 " fill-opacity="1" fill-rule="nonzero"/><path fill="#e6ebfd" d="M 235.402344 280.453125 C 231.503906 283.277344 227.976562 286.800781 223.472656 288.503906 C 218.605469 290.34375 213.148438 289.832031 208.101562 288.566406 C 203.054688 287.300781 198.195312 285.320312 193.105469 284.242188 C 190.015625 283.585938 186.765625 283.296875 183.648438 283.695312 L 231.152344 302.386719 L 244.71875 280.011719 L 239.414062 277.882812 C 238.03125 278.667969 236.691406 279.523438 235.402344 280.453125 Z M 235.402344 280.453125 " fill-opacity="1" fill-rule="nonzero"/><path fill="#ffc8bb" d="M 268.292969 198.941406 C 268.238281 203.4375 269.289062 207.683594 267.292969 212.035156 C 265.242188 216.503906 261.074219 219.984375 256.277344 221.121094 C 255.417969 221.320312 254.558594 221.449219 253.691406 221.523438 L 316.125 246.34375 L 316.421875 246.289062 L 329.542969 223.5 Z M 268.292969 198.941406 " fill-opacity="1" fill-rule="nonzero"/><path fill="#e6ebfd" d="M 234.03125 220.710938 C 229.675781 221.464844 225.867188 223.769531 222.035156 226.058594 L 286.859375 251.773438 L 316.125 246.34375 L 253.691406 221.523438 C 247.21875 222.09375 240.507812 219.589844 234.03125 220.710938 Z M 234.03125 220.710938 " fill-opacity="1" fill-rule="nonzero"/><path fill="#ffc8bb" d="M 213.171875 230.511719 C 204.582031 233.386719 194.507812 231.070312 188.070312 223.34375 L 180.628906 236.949219 L 273.664062 274.859375 L 286.859375 251.773438 L 222.035156 226.058594 C 219.175781 227.765625 216.300781 229.46875 213.171875 230.511719 Z M 213.171875 230.511719 " fill-opacity="1" fill-rule="nonzero"/><path fill="#e6ebfd" d="M 222.457031 209.109375 L 253.691406 221.523438 C 254.558594 221.449219 255.417969 221.320312 256.277344 221.121094 C 261.074219 219.984375 265.242188 216.503906 267.292969 212.035156 C 269.289062 207.683594 268.238281 203.4375 268.292969 198.941406 L 235.8125 185.917969 Z M 222.457031 209.109375 " fill-opacity="1" fill-rule="nonzero"/><path fill="#c0d0f0" d="M 222.445312 209.128906 L 192.90625 214.503906 L 222.035156 226.058594 C 225.867188 223.769531 229.675781 221.464844 234.03125 220.710938 C 240.507812 219.589844 247.21875 222.09375 253.691406 221.523438 L 222.457031 209.109375 Z M 222.445312 209.128906 " fill-opacity="1" fill-rule="nonzero"/><path fill="#c0d0f0" d="M 213.171875 230.511719 C 216.300781 229.46875 219.175781 227.765625 222.035156 226.058594 L 192.90625 214.503906 L 188.070312 223.34375 C 194.46875 231.027344 204.542969 233.398438 213.171875 230.511719 Z M 213.171875 230.511719 " fill-opacity="1" fill-rule="nonzero"/><path fill="#000000" d="M 307.109375 214.9375 C 306.976562 214.847656 306.941406 214.671875 307.03125 214.539062 C 307.664062 213.589844 308.03125 212.554688 308.117188 211.464844 C 308.128906 211.308594 308.269531 211.1875 308.425781 211.199219 C 308.582031 211.214844 308.703125 211.351562 308.6875 211.507812 C 308.59375 212.695312 308.199219 213.824219 307.507812 214.859375 C 307.417969 214.992188 307.242188 215.023438 307.109375 214.9375 Z M 307.109375 214.9375 " fill-opacity="1" fill-rule="nonzero"/><path fill="#000000" d="M 211.257812 284.820312 C 211.246094 284.660156 211.367188 284.523438 211.523438 284.511719 C 213.742188 284.351562 215.996094 284.042969 218.222656 283.59375 C 218.382812 283.5625 218.53125 283.664062 218.5625 283.820312 C 218.59375 283.972656 218.492188 284.125 218.339844 284.15625 C 216.085938 284.609375 213.808594 284.921875 211.566406 285.085938 C 211.414062 285.097656 211.269531 284.980469 211.257812 284.820312 Z M 224.582031 282.222656 C 224.53125 282.074219 224.613281 281.910156 224.761719 281.863281 C 226.890625 281.160156 229.007812 280.324219 231.054688 279.375 C 231.199219 279.308594 231.371094 279.371094 231.4375 279.515625 C 231.503906 279.660156 231.441406 279.828125 231.296875 279.898438 C 229.226562 280.855469 227.089844 281.699219 224.941406 282.40625 C 224.796875 282.457031 224.628906 282.375 224.582031 282.222656 Z M 236.925781 276.585938 C 236.84375 276.449219 236.886719 276.273438 237.023438 276.191406 C 238.765625 275.128906 240.953125 273.660156 242.554688 272.320312 C 242.675781 272.21875 242.859375 272.234375 242.960938 272.355469 C 243.0625 272.476562 243.046875 272.65625 242.921875 272.757812 C 241.296875 274.121094 239.09375 275.597656 237.320312 276.679688 C 237.1875 276.761719 237.011719 276.71875 236.925781 276.585938 Z M 247.253906 267.859375 C 247.125 267.765625 247.101562 267.585938 247.199219 267.457031 C 248.597656 265.613281 249.730469 263.664062 250.566406 261.660156 C 250.625 261.511719 250.796875 261.445312 250.941406 261.503906 C 251.085938 261.566406 251.15625 261.734375 251.09375 261.878906 C 250.242188 263.929688 249.085938 265.921875 247.65625 267.804688 C 247.558594 267.929688 247.378906 267.957031 247.253906 267.859375 Z M 252.429688 255.488281 C 252.269531 255.476562 252.152344 255.335938 252.164062 255.179688 C 252.339844 252.871094 252.089844 250.710938 251.453125 248.566406 C 251.40625 248.414062 251.496094 248.253906 251.648438 248.210938 C 251.800781 248.164062 251.957031 248.25 252.003906 248.402344 C 252.660156 250.617188 252.917969 252.855469 252.734375 255.222656 C 252.722656 255.378906 252.589844 255.5 252.429688 255.488281 Z M 248.667969 242.46875 C 247.53125 240.566406 246.222656 238.730469 244.871094 236.859375 C 244.777344 236.730469 244.804688 236.554688 244.933594 236.460938 C 245.0625 236.367188 245.242188 236.394531 245.335938 236.523438 C 246.695312 238.40625 248.011719 240.253906 249.160156 242.171875 C 249.242188 242.308594 249.199219 242.484375 249.0625 242.566406 C 248.925781 242.648438 248.75 242.601562 248.667969 242.46875 Z M 240.988281 231.253906 C 239.683594 229.128906 238.671875 227.0625 237.984375 225.101562 C 237.933594 224.953125 238.011719 224.789062 238.160156 224.738281 C 238.308594 224.683594 238.472656 224.761719 238.527344 224.914062 C 239.203125 226.832031 240.195312 228.863281 241.480469 230.953125 C 241.5625 231.089844 241.519531 231.265625 241.386719 231.347656 C 241.25 231.429688 241.074219 231.390625 240.988281 231.253906 Z M 295.144531 219.808594 C 294.984375 219.804688 294.859375 219.671875 294.867188 219.511719 C 294.875 219.351562 295.023438 219.230469 295.167969 219.238281 C 298.019531 219.355469 300.105469 218.960938 301.757812 218.363281 C 301.90625 218.3125 302.070312 218.386719 302.125 218.535156 C 302.179688 218.6875 302.101562 218.851562 301.953125 218.902344 C 300.179688 219.546875 298.003906 219.929688 295.144531 219.808594 Z M 288.386719 218.648438 C 286.386719 218.066406 284.296875 217.269531 281.996094 216.21875 C 281.851562 216.152344 281.789062 215.980469 281.855469 215.835938 C 281.921875 215.695312 282.089844 215.628906 282.234375 215.695312 C 284.511719 216.738281 286.574219 217.523438 288.546875 218.097656 C 288.699219 218.140625 288.789062 218.300781 288.742188 218.453125 C 288.699219 218.605469 288.539062 218.691406 288.386719 218.648438 Z M 237.136719 218.632812 C 237.132812 218.632812 237.128906 218.632812 237.125 218.632812 C 236.964844 218.628906 236.84375 218.496094 236.847656 218.335938 C 236.941406 216.023438 237.597656 213.773438 238.894531 211.785156 C 238.984375 211.652344 239.160156 211.613281 239.292969 211.699219 C 239.425781 211.789062 239.464844 211.964844 239.375 212.097656 C 238.125 214.019531 237.511719 216.171875 237.421875 218.359375 C 237.417969 218.515625 237.289062 218.632812 237.136719 218.632812 Z M 275.914062 213.132812 C 273.84375 212.007812 271.792969 210.890625 269.917969 209.9375 C 269.777344 209.867188 269.71875 209.695312 269.789062 209.554688 C 269.863281 209.414062 270.035156 209.355469 270.175781 209.429688 C 272.0625 210.382812 274.019531 211.453125 276.1875 212.625 C 276.328125 212.703125 276.378906 212.875 276.304688 213.015625 C 276.226562 213.152344 276.054688 213.207031 275.914062 213.132812 Z M 243.855469 207.542969 C 243.777344 207.40625 243.828125 207.230469 243.964844 207.152344 C 245.878906 206.074219 248.121094 205.296875 250.460938 204.910156 C 250.617188 204.882812 250.765625 204.992188 250.789062 205.148438 C 250.816406 205.304688 250.710938 205.449219 250.554688 205.476562 C 248.28125 205.851562 246.101562 206.605469 244.246094 207.652344 C 244.109375 207.730469 243.933594 207.679688 243.855469 207.542969 Z M 263.738281 207.179688 C 261.453125 206.328125 259.324219 205.761719 257.238281 205.441406 C 257.082031 205.417969 256.972656 205.273438 256.996094 205.117188 C 257.019531 204.960938 257.164062 204.851562 257.324219 204.875 C 259.449219 205.199219 261.613281 205.777344 263.941406 206.640625 C 264.089844 206.695312 264.164062 206.863281 264.109375 207.011719 C 264.054688 207.15625 263.890625 207.234375 263.738281 207.179688 Z M 263.738281 207.179688 " fill-opacity="1" fill-rule="nonzero"/><path fill="#000000" d="M 204.957031 283.480469 C 204.171875 282.785156 203.375 281.863281 202.703125 280.777344 C 202.621094 280.644531 202.664062 280.46875 202.796875 280.382812 C 202.933594 280.300781 203.109375 280.34375 203.191406 280.476562 C 203.828125 281.503906 204.585938 282.386719 205.339844 283.050781 C 205.457031 283.15625 205.46875 283.335938 205.363281 283.453125 C 205.257812 283.574219 205.078125 283.585938 204.957031 283.480469 Z M 204.957031 283.480469 " fill-opacity="1" fill-rule="nonzero"/><path fill="#39c0c1" d="M 219.957031 249.5625 C 219.417969 240.523438 211.976562 233.265625 202.925781 232.90625 C 192.785156 232.515625 184.433594 240.609375 184.433594 250.652344 C 184.433594 256.445312 187.207031 261.585938 191.507812 264.828125 C 196.339844 268.476562 199.910156 273.535156 202.023438 279.203125 C 202.054688 279.28125 202.125 279.332031 202.207031 279.332031 C 202.289062 279.332031 202.363281 279.28125 202.390625 279.203125 C 204.535156 273.410156 208.347656 268.433594 213.207031 264.609375 C 217.601562 261.148438 220.324219 255.664062 219.957031 249.5625 Z M 202.210938 257.625 C 197.894531 257.625 194.394531 254.132812 194.394531 249.820312 C 194.394531 245.511719 197.894531 242.015625 202.210938 242.015625 C 206.527344 242.015625 210.027344 245.511719 210.027344 249.820312 C 210.027344 254.132812 206.527344 257.625 202.210938 257.625 Z M 202.210938 257.625 " fill-opacity="1" fill-rule="nonzero"/><path fill="#0a0a19" d="M 202.210938 257.914062 C 197.742188 257.914062 194.109375 254.28125 194.109375 249.820312 C 194.109375 245.359375 197.742188 241.730469 202.210938 241.730469 C 206.679688 241.730469 210.3125 245.359375 210.3125 249.820312 C 210.3125 254.28125 206.679688 257.914062 202.210938 257.914062 Z M 202.210938 242.304688 C 198.058594 242.304688 194.683594 245.675781 194.683594 249.820312 C 194.683594 253.964844 198.058594 257.339844 202.210938 257.339844 C 206.363281 257.339844 209.738281 253.964844 209.738281 249.820312 C 209.738281 245.675781 206.363281 242.304688 202.210938 242.304688 Z M 184.761719 247.226562 C 184.605469 247.191406 184.507812 247.039062 184.539062 246.882812 C 184.6875 246.191406 184.878906 245.496094 185.109375 244.824219 C 185.160156 244.675781 185.324219 244.59375 185.472656 244.644531 C 185.625 244.695312 185.703125 244.859375 185.652344 245.007812 C 185.429688 245.660156 185.246094 246.332031 185.101562 247.003906 C 185.070312 247.15625 184.917969 247.257812 184.761719 247.226562 Z M 186.824219 241.746094 C 186.6875 241.664062 186.644531 241.488281 186.726562 241.355469 C 189.613281 236.570312 194.4375 233.433594 199.960938 232.746094 C 200.121094 232.722656 200.261719 232.839844 200.28125 232.996094 C 200.300781 233.152344 200.191406 233.296875 200.035156 233.316406 C 194.683594 233.980469 190.011719 237.019531 187.21875 241.648438 C 187.136719 241.785156 186.960938 241.828125 186.824219 241.746094 Z M 186.824219 241.746094 " fill-opacity="1" fill-rule="nonzero"/><path fill="#2f2f3f" d="M 130.851562 81.492188 C 130.851562 81.492188 116.75 89.78125 126.992188 103.816406 L 145.316406 92.65625 Z M 130.851562 81.492188 " fill-opacity="1" fill-rule="nonzero"/><path fill="#2f2f3f" d="M 205.179688 126.578125 C 205.179688 126.578125 196.9375 147.972656 188.660156 144.136719 C 181.921875 141.011719 194.6875 120.597656 205.179688 126.578125 Z M 205.179688 126.578125 " fill-opacity="1" fill-rule="nonzero"/><path fill="#f72c16" d="M 105.695312 138.976562 C 105.695312 138.976562 105.914062 154.207031 136.066406 152.058594 C 166.222656 149.910156 165.90625 141.285156 165.90625 141.285156 C 165.90625 141.285156 122.953125 126.238281 105.695312 138.976562 Z M 105.695312 138.976562 " fill-opacity="1" fill-rule="nonzero"/><path fill="#ffc8bb" d="M 148.0625 252.769531 L 142.839844 268.609375 L 133.214844 263.398438 L 138.820312 250.066406 Z M 148.0625 252.769531 " fill-opacity="1" fill-rule="nonzero"/><path fill="#fa5743" d="M 143.738281 262.972656 C 144.847656 263.375 145.4375 264.53125 145.214844 265.6875 C 145.027344 266.6875 145.257812 267.425781 146 268.023438 C 148.324219 269.886719 156.117188 271.839844 153.285156 279.75 C 153.035156 280.449219 152.242188 280.792969 151.5625 280.492188 L 129.996094 270.96875 C 129.359375 270.6875 129.066406 269.945312 129.339844 269.304688 L 132.097656 262.847656 C 132.550781 261.699219 133.28125 260.691406 134.203125 259.878906 C 134.398438 259.707031 134.679688 259.664062 134.921875 259.753906 Z M 143.738281 262.972656 " fill-opacity="1" fill-rule="nonzero"/><path fill="#ffc8bb" d="M 248.175781 141.53125 C 248.175781 141.53125 234.308594 146.023438 221.921875 148.316406 C 215.351562 149.539062 209.203125 150.140625 205.757812 149.132812 C 201.289062 147.828125 194.097656 140.96875 188.8125 135.394531 L 188.8125 123.234375 L 201.976562 123.234375 C 205.828125 127.378906 210.222656 132.101562 212.285156 134.320312 L 247.394531 131.941406 Z M 248.175781 141.53125 " fill-opacity="1" fill-rule="nonzero"/><path fill="#fca495" d="M 221.921875 148.316406 C 215.351562 149.539062 209.203125 150.140625 205.757812 149.132812 C 201.289062 147.828125 194.097656 140.96875 188.8125 135.394531 L 188.8125 123.234375 L 201.976562 123.234375 L 206.308594 127.890625 C 205.203125 129.417969 204.554688 130.207031 202.136719 131.757812 C 196.703125 135.257812 195.519531 138.953125 200.742188 142.851562 C 206.710938 147.285156 214.558594 148.71875 221.921875 148.316406 Z M 221.921875 148.316406 " fill-opacity="1" fill-rule="nonzero"/><path fill="#ffc8bb" d="M 135.839844 87.019531 L 135.839844 105.160156 L 125.8125 103.664062 C 68.027344 118.753906 83.375 114.746094 80.710938 115.441406 L 76.28125 105.375 C 76.28125 105.375 81.722656 102.621094 89.273438 99.214844 C 101.132812 93.851562 118.175781 86.847656 127.488281 86.285156 C 129.390625 86.171875 132.601562 86.53125 135.839844 87.019531 Z M 135.839844 87.019531 " fill-opacity="1" fill-rule="nonzero"/><path fill="#fca495" d="M 135.839844 87.019531 L 135.839844 105.160156 L 125.8125 103.664062 L 124.417969 104.027344 C 125.050781 101.882812 126.113281 100.214844 126.726562 98.1875 C 128.183594 93.304688 125.441406 89.378906 118.125 91.535156 C 110.703125 93.730469 104.058594 97.804688 96.390625 98.980469 C 94.242188 99.3125 91.640625 99.546875 89.273438 99.214844 C 101.132812 93.851562 118.175781 86.847656 127.488281 86.285156 C 129.390625 86.171875 132.601562 86.53125 135.839844 87.019531 Z M 135.839844 87.019531 " fill-opacity="1" fill-rule="nonzero"/><path fill="#2f2f3f" d="M 154.242188 256.050781 C 152.4375 258.933594 148.855469 260.15625 145.664062 258.972656 L 136.808594 255.695312 C 136.003906 255.394531 135.578125 254.511719 135.851562 253.699219 L 154.5625 196.867188 C 154.5625 196.867188 148.085938 190.628906 140.976562 181.972656 C 135.65625 175.492188 129.976562 167.644531 126.410156 160.0625 L 147.117188 142.894531 C 147.117188 142.894531 149.558594 145.636719 153.109375 149.835938 C 161.996094 160.339844 177.859375 179.972656 180.082031 188.78125 C 184.34375 205.683594 162.597656 242.691406 154.242188 256.050781 Z M 154.242188 256.050781 " fill-opacity="1" fill-rule="nonzero"/><path fill="#0a0a19" d="M 153.109375 149.835938 C 153.066406 149.917969 153.019531 149.992188 152.96875 150.070312 C 146.429688 160.511719 141.972656 169.800781 140.976562 181.972656 C 135.65625 175.492188 129.976562 167.644531 126.410156 160.0625 L 147.117188 142.894531 C 147.117188 142.894531 149.558594 145.636719 153.109375 149.835938 Z M 153.109375 149.835938 " fill-opacity="1" fill-rule="nonzero"/><path fill="#ffc8bb" d="M 68.320312 248.140625 L 55.746094 259.117188 L 50.121094 249.734375 L 61.742188 241.113281 Z M 68.320312 248.140625 " fill-opacity="1" fill-rule="nonzero"/><g clip-path="url(#64122fde64)"><path fill="#fa5743" d="M 59.394531 254.71875 C 60.144531 255.632812 60.0625 256.925781 59.28125 257.8125 C 58.609375 258.574219 58.429688 259.328125 58.765625 260.21875 C 59.816406 263.003906 65.527344 268.648438 59.058594 274.015625 C 58.488281 274.488281 57.628906 274.386719 57.199219 273.78125 L 43.492188 254.617188 C 43.085938 254.050781 43.210938 253.261719 43.773438 252.851562 L 49.4375 248.691406 C 50.414062 247.9375 51.554688 247.441406 52.761719 247.210938 C 53.019531 247.160156 53.28125 247.265625 53.449219 247.46875 Z M 59.394531 254.71875 " fill-opacity="1" fill-rule="nonzero"/></g><path fill="#2f2f3f" d="M 139.800781 142.105469 C 139.800781 142.105469 135.097656 195.839844 128.636719 206.800781 C 120.199219 221.125 81.894531 245.785156 69.878906 253.292969 C 67.824219 254.578125 65.136719 254.125 63.617188 252.234375 L 57.667969 244.835938 C 57.21875 244.28125 57.257812 243.476562 57.757812 242.960938 L 104.695312 194.839844 C 104.695312 194.839844 101.808594 158.035156 111.28125 136.707031 Z M 139.800781 142.105469 " fill-opacity="1" fill-rule="nonzero"/><path fill="#fa5743" d="M 205.183594 126.578125 C 194.042969 125.277344 192.851562 134.351562 188.660156 144.136719 C 185.320312 142.828125 182.011719 138.492188 178.703125 134.285156 C 156.996094 159.777344 159.800781 156.480469 159.398438 156.953125 C 132.4375 155.542969 124.238281 136.167969 105.699219 138.972656 C 112.988281 126.75 126.359375 116.019531 142.222656 107.628906 L 126.988281 103.820312 C 131.355469 96.90625 132.8125 89.496094 130.847656 81.492188 L 160.011719 87.207031 C 164.75 88.136719 169.222656 90.007812 173.175781 92.675781 C 173.65625 92.996094 174.121094 93.328125 174.585938 93.671875 C 176.480469 95.078125 178.238281 96.679688 179.835938 98.449219 L 186.296875 105.621094 L 187.449219 106.898438 L 201.816406 122.839844 Z M 205.183594 126.578125 " fill-opacity="1" fill-rule="nonzero"/><path fill="#2f2f3f" d="M 187.449219 106.898438 L 187.414062 106.929688 C 185.589844 108.488281 183.257812 109.347656 180.851562 109.347656 C 175.277344 109.347656 170.738281 104.816406 170.738281 99.242188 C 170.738281 96.828125 171.601562 94.503906 173.175781 92.675781 C 173.65625 92.996094 174.121094 93.328125 174.585938 93.671875 C 176.480469 95.078125 178.238281 96.679688 179.835938 98.449219 L 186.296875 105.621094 Z M 187.449219 106.898438 " fill-opacity="1" fill-rule="nonzero"/><path fill="#f72c16" d="M 205.183594 126.578125 C 194.042969 125.277344 192.851562 134.351562 188.660156 144.136719 C 185.320312 142.828125 182.011719 138.492188 178.703125 134.285156 L 178.539062 134.480469 C 179.261719 133.355469 180.058594 133.078125 180.429688 132.039062 C 181.410156 132.976562 180.898438 133.4375 181.488281 134.664062 C 182.71875 137.226562 184.445312 140.09375 187.335938 139.324219 C 189.015625 138.863281 189.917969 137.085938 190.574219 135.472656 C 192.300781 131.253906 193.84375 126.886719 197.6875 124.382812 C 198.78125 123.671875 200.335938 122.96875 201.816406 122.839844 Z M 205.183594 126.578125 " fill-opacity="1" fill-rule="nonzero"/><path fill="#0a0a19" d="M 188.554688 144.402344 C 184.988281 143.007812 181.242188 137.980469 178.699219 134.738281 L 176.441406 137.386719 C 176.339844 137.507812 176.160156 137.523438 176.039062 137.417969 C 175.917969 137.316406 175.902344 137.136719 176.003906 137.015625 L 178.488281 134.101562 C 178.601562 133.96875 178.816406 133.964844 178.933594 134.109375 C 181.328125 137.160156 185.121094 142.273438 188.507812 143.761719 C 192.675781 133.917969 193.941406 124.976562 205.214844 126.292969 C 205.371094 126.3125 205.484375 126.453125 205.464844 126.613281 C 205.449219 126.769531 205.308594 126.882812 205.148438 126.863281 C 194.257812 125.589844 193.082031 134.535156 188.921875 144.25 C 188.863281 144.386719 188.703125 144.460938 188.554688 144.402344 Z M 188.554688 144.402344 " fill-opacity="1" fill-rule="nonzero"/><path fill="#f72c16" d="M 126.988281 103.820312 C 131.355469 96.90625 132.8125 89.496094 130.847656 81.492188 L 144.515625 84.167969 C 138.960938 89.925781 135.027344 97.257812 133.4375 105.429688 Z M 126.988281 103.820312 " fill-opacity="1" fill-rule="nonzero"/><path fill="#f72c16" d="M 162 153.898438 L 159.398438 156.953125 C 132.4375 155.542969 124.238281 136.167969 105.699219 138.972656 C 111.46875 129.296875 121.050781 120.554688 132.664062 113.175781 C 132.65625 113.304688 132.65625 113.433594 132.65625 113.5625 C 132.65625 132.410156 144.972656 148.386719 162 153.898438 Z M 162 153.898438 " fill-opacity="1" fill-rule="nonzero"/><path fill="#ffc8bb" d="M 80.710938 115.4375 C 80.710938 115.4375 79.589844 120.082031 77.429688 120.339844 C 75.273438 120.601562 76.964844 115.183594 76.964844 115.183594 C 76.964844 115.183594 71.386719 120.734375 68.113281 116.882812 C 64.839844 113.03125 62.820312 105 76.277344 105.375 Z M 80.710938 115.4375 " fill-opacity="1" fill-rule="nonzero"/><path fill="#ffc8bb" d="M 252.617188 133.292969 C 252.617188 133.292969 259.132812 130.519531 258.429688 135.90625 C 257.847656 140.371094 254.054688 142.4375 246.929688 141.898438 L 247.394531 131.945312 " fill-opacity="1" fill-rule="nonzero"/><path fill="#2f2f3f" d="M 263.753906 128.375 L 247.589844 143.378906 C 246.835938 144.078125 245.660156 144.03125 244.957031 143.28125 C 244.257812 142.53125 244.296875 141.363281 245.054688 140.660156 L 261.03125 125.832031 C 261.773438 126.808594 262.679688 127.664062 263.753906 128.375 Z M 263.753906 128.375 " fill-opacity="1" fill-rule="nonzero"/><path fill="#ffc8bb" d="M 247.394531 131.945312 C 247.394531 131.945312 254.332031 128.027344 256.160156 129.867188 C 257.691406 131.40625 252.550781 133.484375 252.550781 133.484375 " fill-opacity="1" fill-rule="nonzero"/><g clip-path="url(#2cdc78ff37)"><path fill="#ffbb17" d="M 337.203125 159.550781 C 336.300781 144.507812 323.917969 132.421875 308.847656 131.828125 C 291.96875 131.171875 278.066406 144.648438 278.066406 161.367188 C 278.066406 171.007812 282.6875 179.566406 289.839844 184.964844 C 297.886719 191.035156 303.832031 199.457031 307.347656 208.890625 C 307.453125 209.179688 307.859375 209.179688 307.960938 208.890625 C 311.53125 199.25 317.871094 190.964844 325.960938 184.597656 C 333.28125 178.839844 337.808594 169.710938 337.203125 159.550781 Z M 307.660156 172.976562 C 300.476562 172.976562 294.652344 167.15625 294.652344 159.980469 C 294.652344 152.808594 300.476562 146.988281 307.660156 146.988281 C 314.847656 146.988281 320.671875 152.808594 320.671875 159.980469 C 320.671875 167.15625 314.847656 172.976562 307.660156 172.976562 Z M 307.660156 172.976562 " fill-opacity="1" fill-rule="nonzero"/></g><g clip-path="url(#34e88a52c3)"><path fill="#0a0a19" d="M 334.773438 173.238281 C 334.628906 173.175781 334.5625 173.007812 334.625 172.863281 C 335.273438 171.34375 335.796875 169.757812 336.179688 168.148438 C 336.214844 167.996094 336.371094 167.902344 336.523438 167.9375 C 336.679688 167.972656 336.773438 168.128906 336.738281 168.28125 C 336.347656 169.921875 335.816406 171.539062 335.152344 173.085938 C 335.089844 173.234375 334.921875 173.300781 334.773438 173.238281 Z M 337.226562 160.269531 C 337.074219 160.269531 336.945312 160.152344 336.9375 159.996094 C 336.25 144.847656 323.699219 132.703125 308.835938 132.113281 C 303.972656 131.929688 299.105469 132.945312 294.777344 135.066406 C 294.632812 135.140625 294.460938 135.078125 294.394531 134.9375 C 294.324219 134.792969 294.382812 134.621094 294.523438 134.554688 C 298.9375 132.390625 303.894531 131.347656 308.859375 131.539062 C 324.007812 132.140625 336.582031 144.4375 337.488281 159.535156 C 337.5 159.679688 337.507812 159.824219 337.511719 159.972656 C 337.519531 160.128906 337.398438 160.261719 337.238281 160.269531 C 337.234375 160.269531 337.230469 160.269531 337.226562 160.269531 Z M 337.226562 160.269531 " fill-opacity="1" fill-rule="nonzero"/></g><path fill="#ffc8bb" d="M 199.523438 81.8125 C 199.523438 81.8125 202.636719 83.964844 199.945312 90.550781 C 199.945312 90.550781 201.746094 93.925781 201.058594 94.824219 C 200.632812 95.382812 199.414062 94.753906 199.414062 94.753906 C 199.414062 94.753906 198.949219 99.390625 195.824219 99.898438 C 192.695312 100.40625 188.382812 98.542969 186.925781 93.203125 C 185.472656 87.863281 183.4375 82.160156 188.089844 80.453125 C 192.746094 78.746094 199.523438 81.8125 199.523438 81.8125 Z M 199.523438 81.8125 " fill-opacity="1" fill-rule="nonzero"/><path fill="#0a0a19" d="M 134.839844 111.816406 C 134.757812 111.679688 134.804688 111.503906 134.9375 111.421875 C 137.023438 110.160156 139.203125 108.917969 141.429688 107.726562 L 126.921875 104.097656 C 126.734375 104.050781 126.644531 103.832031 126.75 103.664062 C 131.164062 96.675781 132.449219 89.238281 130.570312 81.558594 C 130.535156 81.40625 130.628906 81.25 130.78125 81.214844 C 130.933594 81.175781 131.089844 81.269531 131.128906 81.425781 C 133.015625 89.136719 131.777344 96.605469 127.445312 103.636719 L 142.292969 107.351562 C 142.546875 107.414062 142.589844 107.757812 142.355469 107.882812 C 139.910156 109.175781 137.515625 110.53125 135.234375 111.910156 C 135.101562 111.992188 134.921875 111.949219 134.839844 111.816406 Z M 134.839844 111.816406 " fill-opacity="1" fill-rule="nonzero"/><path fill="#0a0a19" d="M 178.523438 134.507812 C 178.402344 134.40625 178.382812 134.226562 178.484375 134.105469 C 178.535156 134.042969 183.507812 128.015625 185.5625 122.414062 C 185.617188 122.265625 185.78125 122.1875 185.929688 122.242188 C 186.078125 122.296875 186.15625 122.460938 186.101562 122.609375 C 184.011719 128.304688 178.980469 134.410156 178.929688 134.46875 C 178.828125 134.589844 178.644531 134.609375 178.523438 134.507812 Z M 178.523438 134.507812 " fill-opacity="1" fill-rule="nonzero"/><path fill="#0a0a19" d="M 142 107.8125 C 141.898438 107.6875 141.917969 107.507812 142.039062 107.40625 C 142.09375 107.363281 147.53125 102.898438 152.605469 101.398438 C 152.757812 101.351562 152.917969 101.441406 152.964844 101.59375 C 153.007812 101.746094 152.921875 101.90625 152.769531 101.949219 C 147.804688 103.414062 142.457031 107.804688 142.40625 107.847656 C 142.28125 107.949219 142.101562 107.933594 142 107.8125 Z M 142 107.8125 " fill-opacity="1" fill-rule="nonzero"/><path fill="#0a0a19" d="M 117.789062 162.300781 C 116.5 162.300781 115.113281 162.042969 113.625 161.449219 C 113.480469 161.390625 113.40625 161.222656 113.464844 161.078125 C 113.523438 160.929688 113.691406 160.859375 113.839844 160.917969 C 124.003906 164.976562 129.257812 152.679688 129.476562 152.15625 C 129.539062 152.007812 129.707031 151.9375 129.851562 152 C 130 152.0625 130.070312 152.230469 130.007812 152.375 C 129.960938 152.492188 125.773438 162.300781 117.789062 162.300781 Z M 117.789062 162.300781 " fill-opacity="1" fill-rule="nonzero"/><path fill="#ffc8bb" d="M 184.34375 103.457031 L 186.296875 105.621094 C 184.832031 106.871094 182.925781 107.628906 180.851562 107.628906 C 176.21875 107.628906 172.460938 103.871094 172.460938 99.242188 C 172.460938 97.109375 173.265625 95.152344 174.585938 93.671875 C 175.144531 94.085938 175.691406 94.515625 176.222656 94.964844 L 186.1875 87.285156 L 191.3125 91.644531 L 193.515625 93.511719 L 185.203125 102.523438 Z M 184.34375 103.457031 " fill-opacity="1" fill-rule="nonzero"/><path fill="#fca495" d="M 185.203125 102.523438 C 188.414062 96.539062 187.449219 92.199219 187.449219 92.199219 L 191.3125 91.644531 L 193.515625 93.511719 Z M 185.203125 102.523438 " fill-opacity="1" fill-rule="nonzero"/><path fill="#ffc8bb" d="M 201.058594 94.824219 C 200.632812 95.382812 199.417969 94.75 199.417969 94.75 C 199.382812 94.871094 199.339844 95.902344 198.683594 97.390625 C 198.160156 98.53125 197.273438 99.667969 195.820312 99.902344 C 192.699219 100.40625 188.378906 98.542969 186.925781 93.203125 C 185.472656 87.863281 183.4375 82.160156 188.09375 80.453125 C 192.746094 78.75 199.527344 81.8125 199.527344 81.8125 C 199.527344 81.8125 202.636719 83.960938 199.945312 90.550781 C 199.945312 90.550781 201.746094 93.925781 201.058594 94.824219 Z M 201.058594 94.824219 " fill-opacity="1" fill-rule="nonzero"/><path fill="#2f2f3f" d="M 206.070312 78.121094 C 206.007812 76.582031 205.941406 73.617188 202.757812 72.925781 C 200.445312 72.421875 199.273438 75.546875 199.273438 75.546875 C 199.273438 75.546875 196.097656 70.976562 186.335938 73.78125 C 180.050781 75.585938 178.589844 79.699219 178.925781 83.972656 C 179.128906 86.527344 180.5625 88.761719 182.59375 90.054688 C 183.78125 89.300781 184.855469 88.9375 186.542969 89.863281 C 185.976562 87.992188 185.195312 85.015625 187.21875 84.558594 C 189.492188 84.042969 191.195312 88.140625 191.195312 88.140625 C 194.613281 87.667969 192.578125 82.960938 192.578125 82.960938 C 206.765625 90.863281 206.21875 81.699219 206.070312 78.121094 Z M 206.070312 78.121094 " fill-opacity="1" fill-rule="nonzero"/><path fill="#000000" d="M 198.558594 88.148438 C 198.429688 88.6875 198.066406 89.070312 197.742188 88.992188 C 197.417969 88.917969 197.261719 88.414062 197.386719 87.875 C 197.515625 87.332031 197.878906 86.957031 198.203125 87.03125 C 198.527344 87.105469 198.683594 87.605469 198.558594 88.148438 Z M 198.558594 88.148438 " fill-opacity="1" fill-rule="nonzero"/><path fill="#fca495" d="M 198.917969 96.820312 C 198.847656 97.003906 198.769531 97.195312 198.683594 97.390625 C 198.660156 97.394531 198.636719 97.394531 198.613281 97.394531 C 197.359375 97.394531 196.621094 96.484375 196.390625 95.972656 C 196.328125 95.824219 196.394531 95.65625 196.539062 95.59375 C 196.683594 95.53125 196.851562 95.59375 196.917969 95.738281 C 196.941406 95.789062 197.476562 96.949219 198.832031 96.808594 C 198.859375 96.804688 198.894531 96.808594 198.917969 96.820312 Z M 198.917969 96.820312 " fill-opacity="1" fill-rule="nonzero"/><path fill="#ffc8bb" d="M 187.601562 90.199219 C 186.269531 90.011719 185.382812 88.441406 185.625 86.6875 C 185.871094 84.929688 187.152344 83.660156 188.484375 83.847656 C 189.820312 84.03125 190.703125 85.601562 190.457031 87.355469 " fill-opacity="1" fill-rule="nonzero"/><path fill="#fca495" d="M 187.5625 90.480469 C 186.828125 90.378906 186.191406 89.914062 185.773438 89.171875 C 184.421875 86.773438 186.128906 83.230469 188.527344 83.5625 C 190.011719 83.769531 191.007812 85.488281 190.742188 87.398438 C 190.71875 87.554688 190.574219 87.664062 190.417969 87.640625 C 190.261719 87.621094 190.152344 87.476562 190.171875 87.316406 C 190.394531 85.722656 189.621094 84.292969 188.445312 84.128906 C 186.527344 83.863281 185.152344 86.902344 186.273438 88.890625 C 186.601562 89.472656 187.085938 89.835938 187.640625 89.914062 C 187.796875 89.933594 187.910156 90.082031 187.886719 90.238281 C 187.863281 90.394531 187.714844 90.503906 187.5625 90.480469 Z M 187.5625 90.480469 " fill-opacity="1" fill-rule="nonzero"/><path fill="#ffffff" d="M 293.640625 89.382812 C 281.605469 88.9375 267.070312 97.867188 261.171875 109.324219 C 255.277344 120.777344 260.253906 130.421875 272.296875 130.867188 C 284.332031 131.308594 298.875 122.378906 304.769531 110.925781 C 310.664062 99.46875 305.683594 89.824219 293.640625 89.382812 Z M 299.875 110.253906 C 295.304688 119.125 284.042969 126.039062 274.71875 125.699219 C 265.394531 125.355469 261.539062 117.886719 266.105469 109.015625 C 270.671875 100.136719 281.929688 93.222656 291.253906 93.5625 C 300.578125 93.90625 304.441406 101.375 299.875 110.253906 Z M 299.875 110.253906 " fill-opacity="1" fill-rule="nonzero"/><path fill="#b6bfff" d="M 307.191406 100.5 C 305.882812 114.195312 287.773438 128.695312 272.316406 128.128906 C 264.246094 127.828125 259.347656 123.40625 258.769531 117.074219 C 258.039062 124.839844 263.117188 130.523438 272.296875 130.863281 C 284.332031 131.308594 298.871094 122.378906 304.769531 110.925781 C 306.707031 107.167969 307.464844 103.601562 307.191406 100.5 Z M 307.191406 100.5 " fill-opacity="1" fill-rule="nonzero"/><path fill="#e6ebfd" d="M 273.164062 131.164062 C 263.109375 131.164062 257.726562 125.082031 258.484375 117.046875 L 259.054688 117.046875 C 259.636719 123.425781 264.722656 127.558594 272.324219 127.839844 C 287.699219 128.410156 305.617188 113.9375 306.90625 100.472656 L 307.480469 100.472656 C 307.761719 103.730469 306.914062 107.390625 305.023438 111.058594 C 299.230469 122.308594 285.101562 131.164062 273.164062 131.164062 Z M 259.054688 119.902344 C 259.296875 122.339844 260.199219 124.492188 261.722656 126.226562 C 264.074219 128.902344 267.734375 130.40625 272.308594 130.578125 C 287.152344 131.140625 304.773438 117.503906 306.78125 104.054688 C 302.886719 117.191406 286.152344 128.921875 272.304688 128.414062 C 265.558594 128.164062 260.714844 124.976562 259.054688 119.902344 Z M 259.054688 119.902344 " fill-opacity="1" fill-rule="nonzero"/><path fill="#0a0a19" d="M 273.152344 131.167969 C 260.246094 131.167969 254.808594 121.066406 260.917969 109.195312 C 266.851562 97.667969 281.527344 88.648438 293.652344 89.09375 C 305.976562 89.546875 310.976562 99.488281 305.023438 111.058594 C 299.230469 122.308594 285.097656 131.167969 273.152344 131.167969 Z M 261.429688 109.457031 C 255.746094 120.492188 260.253906 130.136719 272.304688 130.578125 C 284.210938 131.015625 298.671875 122.140625 304.511719 110.796875 C 310.195312 99.75 305.679688 90.109375 293.628906 89.667969 C 281.769531 89.230469 267.296875 98.054688 261.429688 109.457031 Z M 274.707031 125.984375 C 265.085938 125.632812 261.234375 117.851562 265.847656 108.882812 C 270.453125 99.933594 281.863281 92.921875 291.265625 93.277344 C 300.851562 93.628906 304.765625 101.375 300.128906 110.386719 C 295.488281 119.398438 284.035156 126.335938 274.707031 125.984375 Z M 290.585938 93.839844 C 281.511719 93.839844 270.765625 100.582031 266.359375 109.148438 C 261.980469 117.648438 265.441406 125.070312 274.730469 125.410156 C 283.945312 125.746094 295.105469 118.890625 299.617188 110.125 C 304.121094 101.367188 300.316406 93.839844 290.585938 93.839844 Z M 299.875 110.253906 L 299.878906 110.253906 Z M 299.875 110.253906 " fill-opacity="1" fill-rule="nonzero"/><path fill="#0a0a19" d="M 316.125 246.628906 C 316.089844 246.628906 316.054688 246.625 316.019531 246.609375 L 283.375 233.632812 C 283.226562 233.574219 283.15625 233.40625 283.214844 233.261719 C 283.273438 233.113281 283.441406 233.042969 283.585938 233.101562 L 316.230469 246.078125 C 316.378906 246.136719 316.453125 246.304688 316.394531 246.449219 C 316.347656 246.5625 316.238281 246.628906 316.125 246.628906 Z M 316.125 246.628906 " fill-opacity="1" fill-rule="nonzero"/><path fill="#0a0a19" d="M 274.105469 229.925781 C 274.070312 229.925781 274.035156 229.921875 274 229.90625 L 271.289062 228.828125 C 271.140625 228.769531 271.066406 228.601562 271.125 228.457031 C 271.183594 228.308594 271.351562 228.234375 271.5 228.296875 L 274.210938 229.375 C 274.359375 229.433594 274.429688 229.597656 274.371094 229.746094 C 274.328125 229.859375 274.21875 229.925781 274.105469 229.925781 Z M 274.105469 229.925781 " fill-opacity="1" fill-rule="nonzero"/><path fill="#0a0a19" d="M 220.558594 225.78125 L 192.800781 214.769531 C 192.652344 214.710938 192.582031 214.542969 192.640625 214.398438 C 192.699219 214.25 192.867188 214.179688 193.011719 214.234375 L 220.769531 225.246094 C 220.917969 225.304688 220.988281 225.472656 220.929688 225.621094 C 220.871094 225.765625 220.703125 225.835938 220.558594 225.78125 Z M 220.558594 225.78125 " fill-opacity="1" fill-rule="nonzero"/><path fill="#0a0a19" d="M 104.515625 195.0625 C 104.394531 194.964844 104.371094 194.78125 104.472656 194.660156 C 104.570312 194.535156 104.75 194.515625 104.875 194.613281 C 104.921875 194.652344 109.769531 198.425781 117.410156 198.347656 C 117.566406 198.320312 117.699219 198.472656 117.699219 198.628906 C 117.703125 198.789062 117.574219 198.917969 117.417969 198.917969 C 111.980469 198.988281 106.875 196.941406 104.515625 195.0625 Z M 104.515625 195.0625 " fill-opacity="1" fill-rule="nonzero"/><path fill="#0a0a19" d="M 154.515625 197.152344 C 154.359375 197.125 154.253906 196.976562 154.28125 196.820312 C 154.308594 196.664062 154.457031 196.5625 154.613281 196.585938 C 154.695312 196.601562 162.976562 197.9375 169.535156 194.160156 C 169.671875 194.078125 169.847656 194.125 169.925781 194.265625 C 170.003906 194.402344 169.957031 194.578125 169.820312 194.65625 C 165.425781 197.1875 158.917969 197.882812 154.515625 197.152344 Z M 154.515625 197.152344 " fill-opacity="1" fill-rule="nonzero"/><path fill="#3365ff" d="M 264.765625 83.714844 L 245.25 61.558594 C 244.9375 61.203125 244.972656 60.660156 245.328125 60.34375 C 245.6875 60.03125 246.230469 60.066406 246.542969 60.421875 L 266.058594 82.578125 C 266.375 82.933594 266.339844 83.476562 265.980469 83.792969 C 265.625 84.105469 265.082031 84.074219 264.765625 83.714844 Z M 264.765625 83.714844 " fill-opacity="1" fill-rule="nonzero"/><path fill="#3365ff" d="M 258.457031 92.472656 C 250.542969 90.433594 242.40625 89.308594 234.265625 89.128906 C 233.789062 89.117188 233.414062 88.722656 233.425781 88.246094 C 233.433594 87.773438 233.832031 87.375 234.304688 87.40625 C 242.578125 87.589844 250.847656 88.734375 258.886719 90.804688 C 259.347656 90.925781 259.625 91.394531 259.503906 91.851562 C 259.386719 92.308594 258.921875 92.589844 258.457031 92.472656 Z M 258.457031 92.472656 " fill-opacity="1" fill-rule="nonzero"/><path fill="#3365ff" d="M 274.058594 77.9375 C 273.585938 77.914062 273.21875 77.511719 273.242188 77.035156 L 274.410156 54.058594 C 274.4375 53.585938 274.84375 53.210938 275.316406 53.242188 C 275.789062 53.269531 276.15625 53.671875 276.132812 54.148438 L 274.964844 77.125 C 274.941406 77.605469 274.523438 77.964844 274.058594 77.9375 Z M 274.058594 77.9375 " fill-opacity="1" fill-rule="nonzero"/><g clip-path="url(#85badca43b)"><path fill="#ffbb32" d="M 176.1875 51.734375 L 169.191406 33.507812 C 168.625 32.039062 166.847656 31.460938 165.527344 32.320312 L 157.097656 37.796875 C 155.773438 38.65625 155.582031 40.511719 156.699219 41.625 L 170.542969 55.402344 C 171.367188 56.226562 172.660156 56.359375 173.640625 55.722656 L 175.226562 54.691406 C 176.207031 54.058594 176.605469 52.824219 176.1875 51.734375 Z M 176.1875 51.734375 " fill-opacity="1" fill-rule="nonzero"/></g><path fill="#ffbb32" d="M 181.589844 59.953125 C 182.617188 61.527344 182.171875 63.640625 180.59375 64.664062 C 179.019531 65.691406 176.898438 65.242188 175.871094 63.667969 C 174.847656 62.089844 175.300781 59.980469 176.875 58.953125 C 178.453125 57.929688 180.5625 58.375 181.589844 59.953125 Z M 181.589844 59.953125 " fill-opacity="1" fill-rule="nonzero"/><path fill="#ffbb32" d="M 193.015625 50.460938 L 193.785156 37.246094 C 193.847656 36.179688 192.910156 35.328125 191.851562 35.488281 L 185.109375 36.527344 C 184.050781 36.6875 183.414062 37.78125 183.792969 38.78125 L 188.5 51.15625 C 188.78125 51.894531 189.542969 52.339844 190.328125 52.21875 L 191.597656 52.023438 C 192.378906 51.902344 192.972656 51.253906 193.015625 50.460938 Z M 193.015625 50.460938 " fill-opacity="1" fill-rule="nonzero"/><path fill="#ffbb32" d="M 194.058594 57.046875 C 194.253906 58.308594 193.390625 59.492188 192.128906 59.683594 C 190.867188 59.878906 189.683594 59.011719 189.488281 57.75 C 189.292969 56.492188 190.164062 55.3125 191.425781 55.117188 C 192.6875 54.925781 193.867188 55.789062 194.058594 57.046875 Z M 194.058594 57.046875 " fill-opacity="1" fill-rule="nonzero"/><path fill="#ffbb32" d="M 164.527344 66.269531 L 155.164062 60.066406 C 154.410156 59.566406 153.386719 59.890625 153.054688 60.730469 L 150.933594 66.105469 C 150.601562 66.945312 151.132812 67.878906 152.027344 68.027344 L 163.105469 69.871094 C 163.769531 69.980469 164.417969 69.613281 164.664062 68.988281 L 165.0625 67.976562 C 165.308594 67.351562 165.085938 66.640625 164.527344 66.269531 Z M 164.527344 66.269531 " fill-opacity="1" fill-rule="nonzero"/><path fill="#ffbb32" d="M 169.796875 68.320312 C 170.804688 68.714844 171.304688 69.851562 170.90625 70.859375 C 170.511719 71.863281 169.367188 72.359375 168.363281 71.964844 C 167.355469 71.566406 166.863281 70.429688 167.257812 69.421875 C 167.65625 68.417969 168.792969 67.921875 169.796875 68.320312 Z M 169.796875 68.320312 " fill-opacity="1" fill-rule="nonzero"/><g clip-path="url(#62eb438124)"><path fill="#ffbb17" d="M 169.1875 33.507812 L 176.191406 51.734375 C 176.601562 52.824219 176.207031 54.054688 175.222656 54.691406 L 173.640625 55.726562 C 172.875 56.21875 171.925781 56.25 171.148438 55.851562 C 171.496094 55.808594 171.839844 55.679688 172.152344 55.476562 L 173.738281 54.445312 C 174.714844 53.808594 175.117188 52.574219 174.703125 51.488281 L 167.699219 33.257812 C 167.46875 32.652344 167.035156 32.207031 166.507812 31.941406 C 167.617188 31.777344 168.753906 32.382812 169.1875 33.507812 Z M 169.1875 33.507812 " fill-opacity="1" fill-rule="nonzero"/></g><path fill="#ffbb17" d="M 181.589844 59.957031 C 182.617188 61.527344 182.171875 63.636719 180.59375 64.667969 C 179.617188 65.296875 178.445312 65.371094 177.445312 64.960938 C 180.054688 64.808594 181.527344 61.890625 180.101562 59.707031 C 179.707031 59.097656 179.152344 58.65625 178.523438 58.410156 C 179.707031 58.339844 180.894531 58.886719 181.589844 59.957031 Z M 181.589844 59.957031 " fill-opacity="1" fill-rule="nonzero"/><path fill="#ffbb17" d="M 193.78125 37.246094 L 193.019531 50.460938 C 192.972656 51.25 192.382812 51.902344 191.59375 52.023438 L 190.328125 52.222656 C 189.882812 52.285156 189.445312 52.179688 189.097656 51.933594 L 190.105469 51.773438 C 190.890625 51.660156 191.480469 51.007812 191.527344 50.214844 L 192.292969 36.996094 C 192.328125 36.390625 192.042969 35.855469 191.601562 35.535156 L 191.855469 35.492188 C 192.910156 35.332031 193.84375 36.179688 193.78125 37.246094 Z M 193.78125 37.246094 " fill-opacity="1" fill-rule="nonzero"/><path fill="#ffbb17" d="M 194.0625 57.046875 C 194.34375 58.941406 192.351562 60.335938 190.671875 59.429688 C 191.914062 59.226562 192.765625 58.050781 192.574219 56.804688 C 192.460938 56.066406 192.007812 55.460938 191.390625 55.125 C 191.402344 55.125 191.414062 55.121094 191.425781 55.121094 C 192.6875 54.921875 193.867188 55.785156 194.0625 57.046875 Z M 194.0625 57.046875 " fill-opacity="1" fill-rule="nonzero"/><path fill="#ffbb17" d="M 165.0625 67.976562 L 164.664062 68.992188 C 164.417969 69.613281 163.765625 69.980469 163.101562 69.871094 L 161.617188 69.621094 C 162.277344 69.730469 162.933594 69.363281 163.175781 68.742188 L 163.570312 67.730469 C 163.820312 67.101562 163.597656 66.398438 163.035156 66.023438 L 153.851562 59.941406 C 154.257812 59.761719 154.753906 59.789062 155.164062 60.066406 L 164.527344 66.269531 C 165.085938 66.644531 165.308594 67.351562 165.0625 67.976562 Z M 165.0625 67.976562 " fill-opacity="1" fill-rule="nonzero"/><path fill="#ffbb17" d="M 170.910156 70.855469 C 170.464844 71.976562 169.101562 72.464844 168.03125 71.792969 C 169.738281 71.421875 170.105469 69.148438 168.632812 68.242188 C 170.121094 67.875 171.5 69.363281 170.910156 70.855469 Z M 170.910156 70.855469 " fill-opacity="1" fill-rule="nonzero"/><path fill="#000000" d="M 166.117188 51.40625 L 156.496094 41.828125 C 155.25 40.585938 155.464844 38.515625 156.941406 37.558594 L 160.132812 35.484375 C 160.265625 35.398438 160.441406 35.433594 160.527344 35.566406 C 160.617188 35.699219 160.578125 35.878906 160.445312 35.964844 L 157.253906 38.039062 C 156.082031 38.796875 155.914062 40.4375 156.902344 41.421875 L 166.523438 51 C 166.636719 51.109375 166.636719 51.292969 166.523438 51.40625 C 166.414062 51.515625 166.230469 51.515625 166.117188 51.40625 Z M 166.117188 51.40625 " fill-opacity="1" fill-rule="nonzero"/><path fill="#000000" d="M 185.328125 43.625 L 183.523438 38.882812 C 183.082031 37.710938 183.828125 36.433594 185.066406 36.242188 L 187.796875 35.824219 C 187.953125 35.796875 188.097656 35.90625 188.125 36.0625 C 188.148438 36.21875 188.039062 36.363281 187.882812 36.390625 L 185.152344 36.808594 C 184.277344 36.941406 183.746094 37.851562 184.0625 38.675781 L 185.867188 43.421875 C 185.921875 43.570312 185.847656 43.734375 185.699219 43.792969 C 185.554688 43.847656 185.386719 43.777344 185.328125 43.625 Z M 185.328125 43.625 " fill-opacity="1" fill-rule="nonzero"/><path fill="#000000" d="M 156.328125 69.03125 C 156.3125 69.03125 156.296875 69.027344 156.28125 69.027344 L 151.980469 68.3125 C 150.90625 68.132812 150.269531 67.011719 150.667969 66 L 151.082031 64.953125 C 151.140625 64.804688 151.304688 64.734375 151.453125 64.792969 C 151.601562 64.851562 151.671875 65.015625 151.613281 65.164062 L 151.203125 66.210938 C 150.9375 66.882812 151.359375 67.628906 152.074219 67.746094 L 156.375 68.460938 C 156.53125 68.488281 156.636719 68.632812 156.609375 68.789062 C 156.585938 68.929688 156.464844 69.03125 156.328125 69.03125 Z M 156.328125 69.03125 " fill-opacity="1" fill-rule="nonzero"/><path fill="#fca495" d="M 95.730469 188.117188 C 93.425781 174.1875 94.632812 159.765625 99.226562 146.414062 C 99.378906 145.964844 99.867188 145.722656 100.320312 145.878906 C 100.769531 146.03125 101.007812 146.523438 100.855469 146.972656 C 96.355469 160.054688 95.171875 174.1875 97.429688 187.835938 C 97.507812 188.304688 97.191406 188.75 96.722656 188.828125 C 96.253906 188.902344 95.808594 188.589844 95.730469 188.117188 Z M 95.730469 188.117188 " fill-opacity="1" fill-rule="nonzero"/><path fill="#fca495" d="M 89.160156 180.96875 C 87.644531 171.8125 88.4375 162.339844 91.457031 153.5625 C 91.609375 153.113281 92.097656 152.875 92.550781 153.027344 C 93 153.183594 93.238281 153.671875 93.085938 154.121094 C 90.160156 162.628906 89.390625 171.8125 90.859375 180.6875 C 90.9375 181.15625 90.621094 181.597656 90.148438 181.675781 C 89.683594 181.753906 89.238281 181.441406 89.160156 180.96875 Z M 89.160156 180.96875 " fill-opacity="1" fill-rule="nonzero"/></svg>